<svg width="660" height="402" viewBox="0 0 660 402" fill="none" xmlns="http://www.w3.org/2000/svg">
<path fill-rule="evenodd" clip-rule="evenodd" d="M418.011 12.0548C420.701 12.0548 423.838 13.8492 424.959 16.0922C426.303 18.5595 425.631 23.4941 422.493 31.1203C420.028 37.4007 413.977 48.3914 409.047 55.7933C404.117 63.1952 394.256 75.756 387.085 83.8308C379.69 92.5785 372.742 102.896 370.501 109.625C368.26 115.906 364.675 122.186 362.21 123.756C358.4 126.223 358.176 125.999 359.52 120.167C360.193 116.803 364.675 104.242 369.605 92.3542C374.311 80.242 378.121 69.9242 378.121 69.2513C378.121 68.5784 380.138 63.4195 382.827 57.5877C385.516 51.5316 388.878 43.9054 390.671 40.0923C392.239 36.2792 398.066 28.653 403.445 22.8212C409.271 16.3165 415.098 12.0548 418.011 12.0548V12.0548ZM397.618 50.8587C396.721 53.1017 396.946 54.2232 398.29 53.5503C399.635 52.8774 402.772 47.4942 405.686 41.2138C408.599 35.1577 410.616 29.9988 410.168 29.9988C409.944 29.9988 407.254 33.8119 404.341 38.5222C401.428 43.0082 398.29 48.6157 397.618 50.8587ZM465.745 12.0548C471.572 12.0548 472.244 12.7277 472.244 19.4567C472.244 23.2698 470.227 30.6717 467.762 35.6063C465.297 40.5409 460.815 48.6157 457.678 53.5503C454.764 58.4849 446.024 69.9242 438.629 78.8962C431.233 87.6439 424.286 95.0458 422.942 95.0458C421.597 95.0458 420.252 97.7374 419.58 101.326C418.908 104.691 417.563 106.709 416.667 105.812C415.77 104.915 413.753 105.812 412.185 108.055C409.271 111.644 409.271 111.42 410.616 107.382C411.512 104.915 416.667 90.7841 422.269 75.9803C427.648 61.1765 434.819 44.5783 438.181 38.9708C441.318 33.3633 447.369 25.0642 451.627 20.3539C457.229 14.5221 461.039 12.0548 465.745 12.0548ZM442.663 53.9989C442.887 54.8961 444.904 53.326 447.145 50.1858C449.61 47.0456 452.523 42.3353 454.092 39.6437C455.437 36.7278 456.333 34.0362 455.885 33.3633C455.437 32.6904 452.299 36.5035 448.714 42.111C445.128 47.4942 442.439 52.8774 442.663 53.9989V53.9989ZM84.7694 83.3822C85.6658 84.2794 82.7525 95.4944 78.2704 108.504C74.0125 121.513 69.5304 132.28 68.4099 132.728C67.5135 132.952 67.2893 134.523 68.1858 136.093C69.0822 137.663 67.9617 137.438 65.7206 135.42C63.7037 133.625 61.9109 132.952 62.135 134.298C62.135 135.644 61.6868 136.093 61.0145 135.42C60.3421 134.747 61.0144 130.709 62.3591 126.448C63.7037 122.186 67.5135 111.868 70.6509 103.345C74.0125 95.0458 78.0463 88.3168 79.3909 88.3168C80.9597 88.3168 82.7525 87.4196 83.2007 86.0738C83.6489 84.9523 82.3043 84.5037 80.2874 85.1766C77.374 86.2981 77.1499 86.0738 80.0633 84.0551C81.8561 82.9336 83.873 82.485 84.7694 83.3822V83.3822ZM239.401 91.6813C240.521 92.3542 240.97 94.3729 240.297 96.1673C239.625 97.9617 232.454 108.279 224.162 119.27C215.87 130.037 198.614 151.345 185.616 166.822C172.618 182.298 149.311 207.869 133.848 224.018C118.385 240.168 98.8879 258.785 90.1479 265.514C81.632 272.243 70.2027 279.644 64.8242 281.887C59.6698 283.906 52.9467 285.701 49.8093 285.701C46.6718 285.701 41.5174 283.906 38.38 281.887C35.0184 279.42 31.881 274.261 30.3123 268.878C29.1918 263.719 28.7435 253.626 29.64 245.327C30.5364 237.252 33.6738 222.224 36.8113 211.682C39.7246 201.14 42.638 191.046 43.5344 189.252C44.2067 187.457 44.6549 185.214 44.6549 184.317C44.4308 183.196 45.7754 182.971 47.5682 183.644C49.3611 184.317 50.9298 186.336 50.9298 188.13C50.9298 189.925 48.2406 201.812 45.1031 214.598C41.9657 227.158 39.2764 244.654 39.0523 253.177C38.6041 265.065 39.7246 270.673 42.4139 275.158C45.7754 280.317 47.5682 280.99 53.619 280.093C57.6529 279.42 65.0483 276.056 69.9786 272.916C74.9089 269.551 85.8899 260.803 94.63 253.401C103.146 246 115.696 234.336 122.195 227.607C128.918 220.654 141.916 206.523 151.328 195.981C160.741 185.439 181.134 160.766 196.597 141.252C212.06 121.513 227.523 101.999 230.885 97.9617C234.471 93.9243 238.28 91.0084 239.401 91.6813V91.6813ZM27.8471 110.298C28.2953 112.093 30.9846 112.541 36.8113 111.644C41.5174 110.747 48.0164 110.747 51.378 111.644C54.9637 112.317 57.2047 113.887 56.5324 115.233C55.8601 116.579 50.9298 117.027 44.6549 116.13C38.8282 115.457 31.881 114.56 28.9677 113.887C25.8302 113.438 24.4856 111.868 25.6061 110.298C26.7266 108.055 27.1748 108.055 27.8471 110.298ZM287.359 126.896C291.617 127.345 294.306 128.915 294.53 131.382C294.978 133.625 291.393 139.009 286.687 143.495C282.205 147.981 273.016 155.382 266.293 159.868C258.674 164.803 253.519 170.186 252.175 173.999C251.054 178.261 248.813 180.28 245.9 180.28C243.435 180.28 241.418 181.625 241.418 183.196C241.418 184.541 240.97 185.439 240.297 184.766C239.625 184.093 242.762 175.569 247.02 165.7C251.502 155.831 257.777 144.84 261.139 141.252C264.5 137.663 270.327 132.952 273.913 130.709C277.723 128.242 283.549 126.672 287.359 126.896V126.896ZM308.425 285.701C310.218 288.392 311.114 288.392 313.579 286.373C315.82 284.13 316.717 284.355 317.837 287.495C318.509 289.514 318.285 293.551 317.389 296.467C316.268 299.159 313.803 301.402 312.01 301.402C310.218 301.402 307.977 299.831 306.856 297.813C305.96 295.57 306.632 293.551 308.649 292.205C310.89 290.859 311.039 290.187 309.097 290.187C307.752 290.187 306.408 288.392 306.408 286.373C306.408 283.009 306.856 282.785 308.425 285.701ZM327.025 330.112C330.835 332.131 333.524 334.374 333.524 335.047C333.3 335.719 329.49 336.168 324.784 335.944C320.302 335.944 314.476 336.841 312.01 337.962C308.649 339.533 309.097 338.411 314.027 333.252C320.302 326.299 320.526 326.299 327.025 330.112Z" fill="#E2C261" fill-opacity="0.96"/>
<path fill-rule="evenodd" clip-rule="evenodd" d="M303.719 5.32585C305.063 5.32585 306.408 6.67165 306.184 8.24175C306.184 9.58755 292.289 29.5502 275.481 52.2045C258.674 74.8588 242.986 93.9243 240.745 94.3729C238.729 94.8215 237.16 93.9243 237.608 92.1299C237.832 90.7841 243.211 82.9336 249.261 74.8588C255.536 66.784 262.483 57.5877 264.949 54.2232C267.414 50.8587 276.378 38.5222 285.118 26.6343C293.858 14.9707 302.15 5.55015 303.494 5.32585L303.719 5.32585ZM93.7336 56.9148C95.0782 56.9148 95.9746 58.2606 95.9746 59.6064C95.9746 61.1765 93.0613 68.1298 89.6997 74.8588C86.3381 81.5878 82.0802 87.4196 80.2874 87.8682C78.2704 88.5411 78.4945 87.4196 81.4079 85.1766C84.0971 83.1579 84.5453 82.0364 82.5284 82.7093C79.615 83.6065 79.615 82.0364 82.9766 71.9429C85.2176 65.6625 87.9069 60.5036 89.2515 60.7279C90.372 61.1765 91.4925 60.2793 91.4925 59.1578C91.4925 58.0363 92.3889 56.9148 93.7336 56.9148V56.9148ZM18.6589 104.242C22.9169 106.485 26.0543 109.401 25.382 110.747C24.7097 112.093 22.4686 112.317 20.2276 111.42C18.2107 110.747 14.625 108.504 12.6081 106.485C10.3671 104.466 9.02244 102.223 9.69475 101.326C10.143 100.429 14.1768 101.775 18.6589 104.242V104.242ZM416.218 105.364C416.891 105.812 413.081 119.494 407.927 135.868C402.548 152.242 397.394 166.149 396.497 166.822C395.377 167.495 394.705 169.513 394.705 171.308C394.705 173.102 392.912 181.177 390.895 189.252C388.654 197.326 384.62 211.009 381.707 219.532C378.793 228.056 373.639 245.327 370.277 257.663C366.692 271.345 364.899 282.785 365.571 286.822C366.243 290.635 365.795 295.345 364.226 297.813C362.434 300.504 360.193 301.626 357.503 300.729C355.262 299.607 353.694 296.916 353.694 292.878C353.694 289.514 355.711 279.644 357.952 271.121C360.193 262.598 364.899 246.224 368.26 235.233C371.398 224.242 381.931 192.392 391.119 164.579C400.531 136.766 409.719 111.868 411.512 109.401C413.305 106.709 415.546 104.915 416.218 105.364V105.364ZM563.006 115.681C569.057 116.354 569.953 117.251 569.729 123.083C569.505 127.121 565.247 135.868 558.972 144.84C553.37 153.364 548.664 160.541 548.664 161.214C548.664 161.887 552.473 161.663 556.956 160.99C561.662 160.093 571.746 157.177 579.366 154.261C587.209 151.345 594.381 149.326 595.725 149.999C596.846 150.672 597.966 152.915 597.966 154.934C597.966 157.177 597.07 159.868 596.174 161.214C595.053 162.56 591.019 171.756 587.209 181.85C583.176 192.168 578.918 200.018 577.797 199.345C576.453 198.672 575.108 199.569 574.66 200.915C574.211 202.485 573.315 203.158 572.419 202.037C571.746 201.14 574.66 192.168 578.918 181.85C583.176 171.756 586.761 162.111 586.761 160.541C586.761 159.195 586.089 158.298 584.968 158.747C584.072 159.42 575.332 161.887 565.471 164.579C555.611 167.046 545.974 168.616 544.182 167.943C542.389 167.27 533.873 170.859 525.133 175.794C512.359 182.971 506.532 184.99 493.758 186.111C481.433 187.233 476.951 188.803 472.468 192.84C469.331 195.981 462.832 199.121 457.902 200.242C451.851 201.812 446.472 201.588 441.094 199.794C436.836 198.224 432.13 194.635 430.561 191.495C428.992 188.354 427.648 183.196 427.648 179.607C427.648 176.018 430.337 170.41 434.371 165.7C437.957 161.439 442.439 157.85 444.456 157.85C446.248 157.85 450.506 155.831 453.868 153.364C457.454 150.672 461.936 148.653 463.953 148.878C466.194 148.878 470.452 151.121 473.589 154.037C477.175 157.401 479.64 162.56 480.76 170.186C482.329 179.831 483.45 181.401 488.156 182.074C491.293 182.523 498.689 181.177 504.963 179.382C511.014 177.588 519.754 172.878 524.012 169.289C530.511 163.906 531.408 162.111 528.943 159.644C527.374 158.074 526.253 154.485 526.253 151.569C526.253 148.878 527.598 143.943 529.391 140.354C530.959 136.99 537.683 130.037 544.406 124.653C553.594 117.251 557.852 115.233 563.006 115.681V115.681ZM537.683 148.653C537.683 151.121 538.131 153.364 539.027 153.364C540.148 153.139 543.958 148.878 547.543 143.719C551.129 138.56 555.387 132.055 556.956 129.364C558.3 126.448 558.972 124.205 558.3 124.205C557.628 124.205 552.698 128.691 547.543 134.074C542.389 139.457 537.907 145.962 537.683 148.653V148.653ZM458.574 163.906C458.798 165.476 460.591 168.392 462.384 170.186C464.177 171.981 466.642 173.551 467.986 173.551C469.107 173.551 470.452 170.635 470.676 167.046C471.124 163.233 469.779 159.644 467.762 158.074C465.073 156.28 463.28 156.504 461.263 158.298C459.47 159.868 458.35 162.336 458.574 163.906ZM441.542 189.252C443.111 191.719 446.697 193.738 449.386 193.738C452.299 193.738 457.005 192.168 460.143 190.373L465.745 187.009C450.058 174.896 444.68 171.308 443.559 171.308C442.439 171.308 440.87 174.224 440.198 178.037C439.525 181.85 440.198 186.784 441.542 189.252V189.252ZM363.778 122.635C364.002 123.308 359.296 139.233 353.47 158.074C347.867 177.139 338.679 206.298 333.524 222.897C328.37 239.495 322.543 259.233 320.975 266.635C319.182 274.037 316.941 281.663 315.82 283.458C314.251 285.701 314.924 288.168 317.389 291.084C321.199 295.345 321.199 295.345 315.148 291.084C311.786 288.841 308.873 284.803 308.873 282.336C308.873 279.869 313.803 261.252 319.854 240.841C326.129 220.429 332.628 198.672 334.421 192.616C336.214 186.336 337.334 180.728 336.662 179.607C336.214 178.71 327.474 184.093 317.165 191.27C307.08 198.672 293.186 207.196 286.463 210.336C279.291 213.7 270.103 216.168 264.5 216.168C256.657 216.168 253.743 214.822 247.244 208.317C241.866 202.934 239.401 198.448 239.401 193.738C239.401 189.925 239.849 185.439 240.521 183.644C241.194 181.85 243.211 180.28 245.003 180.28C247.469 180.28 248.141 182.298 247.693 187.457C247.244 191.495 247.693 197.551 248.813 200.915C249.71 204.504 253.071 208.093 256.209 209.439C259.346 210.784 264.5 211.682 267.862 211.682C271.448 211.682 282.653 206.971 292.962 200.915C303.27 195.083 318.733 184.541 327.025 177.364C339.127 167.495 343.833 161.663 348.091 151.569C351.228 144.616 353.694 137.663 353.47 136.317C353.245 134.971 355.486 131.158 358.4 127.794C361.089 124.429 363.554 122.186 363.778 122.635V122.635ZM65.0483 134.074C67.9617 134.298 67.9617 135.868 65.4965 144.392C63.9278 149.999 60.3421 161.663 57.4288 170.186C54.2913 180.055 50.9298 185.887 48.9129 186.111C46.6718 186.111 45.7754 184.541 46.2236 181.625C46.6718 178.934 49.5852 168.84 52.7226 158.971C55.8601 149.102 59.6698 140.354 61.0144 139.457C62.3591 138.56 62.8073 137.663 61.6868 137.663C60.7903 137.663 60.5662 136.766 61.0144 135.868C61.4627 134.747 63.2555 134.074 65.0483 134.074V134.074ZM584.296 335.495C586.313 336.841 587.658 339.084 587.434 340.43C586.985 341.776 586.089 342.224 585.193 341.327C584.296 340.43 581.607 340.654 579.59 341.776C576.677 343.346 575.78 343.346 576.453 341.327C577.125 339.757 576.228 339.308 574.211 340.205C572.419 341.103 570.85 340.878 570.626 339.981C570.402 338.86 572.643 336.841 575.556 335.719C579.142 334.224 582.055 334.149 584.296 335.495V335.495ZM54.2913 335.944C57.2047 335.944 59.2216 336.841 58.7734 337.962C58.3252 338.86 58.7734 339.533 60.118 339.533C61.4627 339.533 61.9109 340.43 61.2386 341.776C60.5662 343.121 58.1011 344.019 55.636 344.019C53.1708 344.019 50.7057 342.224 50.0334 339.757C49.137 336.617 50.0334 335.719 54.2913 335.944ZM326.353 336.168C331.956 336.168 336.886 337.065 337.334 338.411C337.782 339.757 334.869 343.794 323.44 355.009L315.148 347.159C310.442 342.897 306.632 339.084 306.632 338.411C306.632 337.738 307.304 337.738 308.425 338.187C309.321 338.86 311.338 338.411 313.131 337.514C314.924 336.617 320.974 335.944 326.353 336.168Z" fill="#D0AE4F" fill-opacity="0.97"/>
<path d="M117.713 341.327C87.9069 341.103 72.6678 340.43 80.0633 339.533C86.7864 338.635 109.197 337.962 129.814 337.738C153.793 337.514 167.464 338.187 167.464 339.533C167.464 340.878 149.535 341.551 117.713 341.327Z" fill="#D7B55A" fill-opacity="0.76"/>
<path d="M356.383 341.776C346.971 341.776 340.023 340.878 340.023 339.533C340.023 338.187 348.091 337.29 359.744 337.29C373.191 337.29 378.121 337.962 375.88 339.533C374.087 340.654 365.123 341.776 356.383 341.776Z" fill="#D7B55A" fill-opacity="0.76"/>
<path d="M451.627 338.86C449.61 339.308 445.576 339.308 442.663 338.86C439.749 338.411 441.542 337.962 446.472 337.962C451.403 337.738 453.644 338.187 451.627 338.86Z" fill="#D7B55A" fill-opacity="0.76"/>
<path d="M513.255 341.551C487.483 341.327 464.177 340.654 461.039 339.757C457.902 338.86 478.743 337.738 507.205 337.514C541.866 337.215 559.271 337.888 559.421 339.533C559.57 341.028 544.182 341.701 513.255 341.551Z" fill="#D7B55A" fill-opacity="0.76"/>
<path d="M534.321 388.206C533.425 389.103 532.752 386.635 532.752 382.598C532.752 378.785 533.425 375.42 534.545 375.42C535.442 375.42 536.114 377.888 536.114 380.804C536.114 383.72 535.217 387.084 534.321 388.206Z" fill="#D7B55A" fill-opacity="0.76"/>
<path d="M41.2933 261.028C40.621 264.392 40.3969 263.046 40.3969 257.663C40.1728 252.729 40.621 250.261 41.2933 252.056C41.7415 253.85 41.7415 257.887 41.2933 261.028Z" fill="#BB984E" fill-opacity="0.2"/>
<path d="M92.3889 336.617C87.4587 337.065 79.8391 337.065 75.5812 336.617C71.3232 336.168 75.3571 335.719 84.5453 335.719C93.7336 335.719 97.3192 336.168 92.3889 336.617Z" fill="#BB984E" fill-opacity="0.2"/>
<path d="M123.539 336.617C121.074 337.065 115.92 337.065 112.334 336.617C108.748 336.168 110.765 335.719 117.04 335.719C123.091 335.719 126.229 336.168 123.539 336.617Z" fill="#BB984E" fill-opacity="0.2"/>
<path d="M558.524 336.617C554.939 337.065 549.336 337.065 546.199 336.617C543.061 336.168 546.199 335.719 552.922 335.719C559.645 335.719 562.11 336.168 558.524 336.617Z" fill="#BB984E" fill-opacity="0.2"/>
<path d="M89.0274 343.346C85.8899 343.794 79.8391 343.794 75.5812 343.346C71.3232 342.897 73.7883 342.448 81.1838 342.448C88.5792 342.448 92.1648 342.897 89.0274 343.346Z" fill="#BB984E" fill-opacity="0.2"/>
<path d="M199.959 343.346C181.358 343.794 150.208 343.794 130.487 343.346C110.765 343.121 125.78 342.673 164.102 342.673C202.424 342.673 218.335 343.121 199.959 343.346Z" fill="#BB984E" fill-opacity="0.2"/>
<path d="M528.27 343.346C521.547 343.794 510.79 343.794 504.739 343.346C498.464 342.897 504.067 342.673 517.065 342.673C530.063 342.673 534.993 342.897 528.27 343.346Z" fill="#BB984E" fill-opacity="0.2"/>
<path d="M48.6888 110.074C45.5513 110.522 41.0692 110.522 38.6041 110.074C36.139 109.625 38.6041 109.177 44.2067 109.177C49.8093 109.177 51.8262 109.625 48.6888 110.074Z" fill="#D7B65D" fill-opacity="0.53"/>
<path d="M140.571 218.411C139.899 218.411 143.933 213.925 149.535 208.317C154.914 202.71 159.844 198.224 160.516 198.224C161.189 198.224 157.155 202.71 151.776 208.317C146.174 213.925 141.244 218.411 140.571 218.411Z" fill="#D7B65D" fill-opacity="0.53"/>
<path d="M94.63 253.177L118.161 229.177C130.935 215.719 141.916 204.953 142.14 204.953C142.588 204.953 142.812 205.177 142.812 205.626C142.812 205.85 132.055 216.616 94.63 253.177Z" fill="#D7B65D" fill-opacity="0.53"/>
<path d="M97.3192 21.0268C96.6469 24.3913 96.4228 23.0455 96.4228 17.6623C96.1987 12.7277 96.6469 10.2605 97.3192 12.0548C97.7674 13.8492 97.7674 17.8866 97.3192 21.0268Z" fill="#916F38" fill-opacity="0.19"/>
<path d="M298.564 379.682L306.408 377.888C310.666 376.766 314.924 375.869 315.82 375.645C316.941 375.645 317.613 377.215 317.389 379.458C317.389 381.477 316.717 382.374 316.268 381.028C315.82 379.682 311.562 379.009 298.564 379.682Z" fill="#916F38" fill-opacity="0.19"/>
<path d="M338.903 401.664C333.973 402.112 324.784 402.112 318.733 401.664C312.459 401.215 316.492 400.991 327.698 400.991C338.679 400.991 343.833 401.215 338.903 401.664Z" fill="#916F38" fill-opacity="0.19"/>
<path d="M68.8581 6.44735C73.116 4.20435 79.615 1.51275 83.4248 0.839853C87.2346 -0.057346 92.613 -0.281646 95.7505 0.391254C98.8879 0.839853 102.698 2.63425 104.266 3.98005C105.835 5.32585 107.18 10.709 106.956 16.0922C106.956 21.2511 104.939 31.7932 102.249 39.6437C99.7843 47.2699 95.7505 55.3447 93.2853 57.5877C91.0443 59.6064 88.8033 60.9522 88.3551 60.2793C88.131 59.6064 90.8202 50.4101 94.4059 39.6437C99.5602 23.7184 100.457 18.3352 98.8879 12.0548C97.0951 5.32585 95.9746 4.20435 90.1479 4.42865C86.3381 4.42865 76.9258 8.46605 68.8581 13.4006C60.7903 18.1109 47.12 29.1016 38.6041 37.8493C28.7435 47.7185 20.0035 58.9335 15.2973 68.1298C9.47064 79.3448 8.35012 84.2794 9.47064 89.4383C10.3671 93.2514 11.4876 97.9617 11.9358 100.205C12.6081 103.121 11.9358 103.569 8.79833 101.999C6.78139 101.102 4.31626 98.4103 3.19574 96.3916C2.29932 94.3729 1.62701 89.214 1.62701 84.9523C1.62701 80.4663 4.54036 71.4943 8.57422 64.3167C12.1599 57.1391 20.6758 45.9241 26.9507 39.1951C33.4497 32.6904 43.5344 23.4941 49.8093 19.0081C55.8601 14.2978 64.6001 8.69035 68.8581 6.44735Z" fill="#AA8333" fill-opacity="0.96"/>
<path d="M612.309 211.233C623.514 199.794 638.081 183.42 644.804 175.121C653.096 164.579 657.578 160.541 659.371 162.111C660.94 163.682 659.595 167.046 655.113 172.878C651.527 177.588 642.787 187.906 636.064 195.756C629.117 203.831 619.032 214.822 613.43 220.205C607.827 225.588 598.863 232.99 593.26 236.579C587.658 240.168 581.159 243.084 578.694 243.084C576.228 243.084 571.97 241.514 569.057 239.719C566.144 237.7 564.127 234.112 564.127 230.747C564.127 227.607 565.471 219.981 566.816 213.925C568.385 207.644 571.074 202.71 572.419 202.71C573.987 202.71 575.332 201.812 575.332 200.467C575.332 199.121 576.228 198.672 577.573 199.345C578.918 200.018 578.694 204.28 576.453 211.009C574.66 217.065 573.091 225.14 573.091 228.953C573.091 232.99 574.436 236.803 575.78 237.252C577.349 237.7 581.831 236.803 585.417 235.009C589.002 233.439 601.328 222.672 612.309 211.233Z" fill="#AA8333" fill-opacity="0.96"/>
<path d="M294.754 130.485C293.186 128.466 289.376 126.223 286.238 125.775L280.636 124.878L286.238 124.429C289.376 124.205 293.186 125.326 294.754 126.896C296.323 128.466 297.444 130.709 297.444 132.055C297.444 133.401 296.323 132.504 294.754 130.485Z" fill="#DFBF6F" fill-opacity="0.73"/>
<path d="M86.7864 338.86C83.6489 339.308 77.5981 339.308 73.3402 338.86C69.0822 338.411 71.5473 337.962 78.9427 337.962C86.3382 337.962 89.9238 338.411 86.7864 338.86Z" fill="#DFBF6F" fill-opacity="0.73"/>
<path d="M233.126 341.551C190.098 341.551 167.464 340.878 167.464 339.533C167.464 337.962 191.443 337.29 236.487 337.29C276.602 337.29 303.943 338.187 301.926 339.308C300.133 340.43 268.982 341.327 233.126 341.551Z" fill="#DFBF6F" fill-opacity="0.73"/>
<path d="M110.765 18.7838C110.093 22.1483 109.869 20.8025 109.869 15.4193C109.645 10.4848 110.093 8.01745 110.765 9.81185C111.214 11.6063 111.214 15.6436 110.765 18.7838Z" fill="#B09167" fill-opacity="0.2"/>
<path d="M601.104 219.532L612.309 207.869C618.36 201.364 623.738 195.981 623.962 195.981C624.411 195.981 624.635 196.205 624.635 196.654C624.635 196.878 619.48 202.261 601.104 219.532Z" fill="#B09167" fill-opacity="0.2"/>
<path d="M296.995 343.346C294.979 343.794 290.945 343.794 288.031 343.346C285.118 342.897 286.911 342.448 291.841 342.448C296.771 342.224 299.012 342.673 296.995 343.346Z" fill="#B09167" fill-opacity="0.2"/>
<path d="M355.262 343.346C353.245 343.794 349.212 343.794 346.298 343.346C343.385 342.897 345.178 342.448 350.108 342.448C355.038 342.224 357.279 342.673 355.262 343.346Z" fill="#B09167" fill-opacity="0.2"/>
<path d="M422.942 343.346C419.804 343.794 415.322 343.794 412.857 343.346C410.392 342.897 412.857 342.448 418.46 342.448C424.062 342.448 426.079 342.897 422.942 343.346Z" fill="#B09167" fill-opacity="0.2"/>
<path d="M552.473 343.346C550.457 343.794 546.423 343.794 543.509 343.346C540.596 342.897 542.389 342.448 547.319 342.448C552.249 342.224 554.49 342.673 552.473 343.346Z" fill="#B09167" fill-opacity="0.2"/>
<path d="M224.61 396.729L223.041 385.29C221.697 374.748 221.921 374.075 226.403 373.626C229.316 373.402 230.213 374.075 228.644 374.972C227.299 375.869 225.731 381.028 224.61 396.729Z" fill="#B09167" fill-opacity="0.2"/>
<path d="M284.894 380.804C281.308 381.252 279.515 380.579 280.636 379.458C281.532 378.336 284.446 377.663 287.135 378.112C289.6 378.561 291.841 380.355 292.065 382.149C292.065 383.944 291.841 384.168 291.393 382.822C290.945 381.028 288.255 380.131 284.894 380.804Z" fill="#B09167" fill-opacity="0.2"/>
<path d="M322.767 357.477C322.319 358.149 318.285 354.561 313.579 349.85L305.287 340.878L314.476 348.729C319.406 352.991 323.216 356.804 322.767 357.477Z" fill="#D0AE57" fill-opacity="0.35"/>
<path d="M287.135 374.972C284.67 375.421 279.515 375.421 275.93 374.972C272.344 374.523 274.361 374.075 280.636 373.85C286.687 373.85 289.824 374.299 287.135 374.972Z" fill="#D0AE57" fill-opacity="0.35"/>
<path d="M493.534 374.972C489.724 375.421 484.346 375.421 481.209 374.972C478.071 374.523 481.209 374.075 487.932 374.075C494.655 374.075 497.12 374.523 493.534 374.972Z" fill="#D0AE57" fill-opacity="0.35"/>
<path d="M135.865 384.168C135.641 381.028 136.313 377.663 137.21 376.766C138.33 375.645 139.675 376.542 139.899 378.561C140.347 380.579 139.675 383.944 138.33 385.963C136.537 389.551 136.089 389.327 135.865 384.168Z" fill="#C2A458" fill-opacity="0.61"/>
<path d="M218.559 376.991C216.542 377.439 212.508 377.439 209.595 376.991C206.682 376.542 208.475 376.093 213.405 376.093C218.335 375.869 220.576 376.318 218.559 376.991Z" fill="#C2A458" fill-opacity="0.61"/>
<path d="M227.972 392.243C226.627 392.916 225.731 389.551 225.955 384.168C225.955 375.196 225.955 375.196 234.246 375.869C241.642 376.542 242.538 377.215 242.538 382.822C242.538 387.981 242.538 387.981 242.09 383.271C241.642 379.009 240.073 377.663 235.815 377.663C231.109 377.663 230.213 378.785 230.213 384.392C230.213 387.981 229.316 391.57 227.972 392.243Z" fill="#C2A458" fill-opacity="0.61"/>
<path d="M279.515 379.906C278.843 380.804 276.826 380.355 275.033 378.785C272.344 376.542 273.689 376.093 281.756 376.093C287.359 376.093 289.376 376.542 286.238 376.991C283.101 377.663 280.188 379.009 279.515 379.906Z" fill="#C2A458" fill-opacity="0.61"/>
<path d="M308.201 376.991C306.184 377.439 302.15 377.439 299.236 376.991C296.323 376.542 298.116 376.093 303.046 376.093C307.977 375.869 310.218 376.318 308.201 376.991Z" fill="#C2A458" fill-opacity="0.61"/>
<path d="M488.156 385.514C487.259 381.701 487.708 378.112 489.052 377.215C490.173 376.318 493.758 375.645 496.896 375.869C502.113 376.087 502.059 376.093 496.937 376.708L496.448 376.766C491.069 377.439 490.173 378.785 489.724 392.243L488.156 385.514Z" fill="#C2A458" fill-opacity="0.61"/>
<path d="M139.451 387.981L145.053 386.411C148.191 385.514 151.552 384.841 152.897 384.841C154.242 384.841 153.793 385.065 152.449 385.738C150.88 386.187 149.984 387.308 150.432 388.206C150.88 389.327 148.639 389.551 139.451 387.981Z" fill="#C2A458" fill-opacity="0.61"/>
<path d="M293.41 394.262C292.962 392.019 293.186 388.654 293.858 387.084C294.53 385.738 297.444 384.617 305.287 385.065L300.133 385.738C296.547 386.411 295.203 388.206 295.203 392.243C295.203 395.383 295.875 398.075 296.771 398.523C297.892 398.972 297.668 399.196 296.323 398.972C294.979 398.748 293.858 396.729 293.41 394.262Z" fill="#C2A458" fill-opacity="0.61"/>
<path d="M171.946 397.85C170.601 397.85 169.705 395.159 169.929 391.57C169.929 386.187 170.153 385.963 171.946 390C173.066 392.467 173.963 395.159 173.963 396.056C174.187 397.178 173.29 397.85 171.946 397.85Z" fill="#C2A458" fill-opacity="0.61"/>
<path d="M61.0145 341.776C61.6868 340.43 60.7904 337.738 59.4457 335.719H59.2216C56.7565 332.579 57.2047 332.579 62.8073 335.944C66.1688 338.187 69.0822 340.43 68.8581 340.878C68.8581 341.327 66.8411 342.224 64.376 342.897C61.9109 343.57 60.3421 343.121 61.0145 341.776Z" fill="#CEA94C" fill-opacity="0.85"/>
<path d="M564.127 341.103C561.886 341.551 559.869 340.878 559.869 339.533C559.869 338.187 562.558 337.29 565.92 337.29C569.057 337.29 571.074 337.962 570.178 338.86C569.057 339.981 566.368 340.878 564.127 341.103Z" fill="#CEA94C" fill-opacity="0.85"/>
<path d="M93.0613 396.729C92.1648 396.056 93.7336 392.467 96.4228 388.878C99.1121 385.29 101.353 382.149 101.801 382.149C102.025 382.149 100.457 385.738 98.4397 390C96.4228 394.262 94.1818 397.178 93.0613 396.729Z" fill="#CEA94C" fill-opacity="0.85"/>
<path d="M108.524 18.7838C107.852 22.1483 107.628 20.8025 107.628 15.4193C107.404 10.4848 107.852 8.01745 108.524 9.81185C108.973 11.6063 108.973 15.6436 108.524 18.7838Z" fill="#BA9441" fill-opacity="0.87"/>
<path d="M31.881 44.5783L39.5005 36.2792V36.0549C43.7585 31.5689 47.5682 27.7558 48.0164 27.7558C48.4646 27.7558 48.6887 27.9801 48.6887 28.2044C48.6887 28.653 44.879 32.4661 31.881 44.5783Z" fill="#BA9441" fill-opacity="0.87"/>
<path d="M0.95471 88.3168C0.282399 91.6813 0.058296 90.3355 0.058296 84.9523C-0.165808 80.0177 0.282399 77.5504 0.95471 79.3448C1.40292 81.1392 1.40292 85.1766 0.95471 88.3168Z" fill="#A18144" fill-opacity="0.62"/>
<path d="M594.381 228.504L607.827 214.598C614.998 206.747 621.497 200.467 621.721 200.467C622.17 200.467 622.394 200.691 622.394 201.14C622.394 201.364 616.119 207.644 594.381 228.504Z" fill="#A18144" fill-opacity="0.62"/>
<path d="M329.939 400.093C325.681 400.093 322.095 399.196 322.095 397.85C322.095 396.505 325.681 395.607 329.939 395.607C334.197 395.607 337.782 396.505 337.782 397.85C337.782 399.196 334.197 400.093 329.939 400.093Z" fill="#A18144" fill-opacity="0.62"/>
<path d="M341.144 399.421L348.987 397.85C353.245 396.953 357.503 396.056 358.624 395.832C359.52 395.832 360.193 396.505 360.193 397.85C360.193 399.196 355.935 399.869 341.144 399.421Z" fill="#A18144" fill-opacity="0.62"/>
<path d="M544.63 391.121C541.716 388.654 539.475 386.187 539.475 385.514C539.475 384.841 541.716 384.392 544.63 384.617C547.319 384.617 548.215 385.065 546.871 385.738C544.854 386.411 544.63 387.533 546.199 390C547.543 391.794 549.336 392.916 550.681 392.243C552.025 391.57 552.922 392.019 552.922 393.364C552.922 394.71 552.249 395.607 551.353 395.607C550.232 395.383 547.319 393.364 544.63 391.121Z" fill="#9A7B39" fill-opacity="0.38"/>
<path d="M240.745 100.878C239.849 101.326 245.228 93.7 252.847 83.8308C260.467 73.9616 266.966 65.8868 267.638 65.8868C268.086 65.8868 267.638 67.2326 266.517 68.8027C265.397 70.1485 259.57 77.999 253.519 85.8495C247.469 93.7 241.866 100.429 240.745 100.878Z" fill="#626636" fill-opacity="0.4"/>
<path d="M603.345 232.317C599.535 234.785 602.673 231.196 610.068 224.467C617.463 217.513 623.962 211.906 624.411 211.682C625.083 211.682 621.945 215.27 617.688 219.756C613.43 224.242 606.931 229.85 603.345 232.317Z" fill="#626636" fill-opacity="0.4"/>
<path d="M578.694 243.308C582.279 243.084 586.985 241.962 588.778 240.841C590.571 239.719 592.364 238.598 592.588 238.598C593.036 238.598 593.26 239.046 593.26 239.719C593.26 240.392 590.571 242.186 586.985 243.981C583.4 245.775 579.142 246.224 576.452 245.102C572.643 243.757 573.091 243.308 578.694 243.308Z" fill="#626636" fill-opacity="0.4"/>
<path d="M398.29 341.103C395.153 341.551 390.671 341.551 388.206 341.103C385.74 340.654 388.206 340.205 393.808 340.205C399.411 340.205 401.428 340.654 398.29 341.103Z" fill="#7B9D6B" fill-opacity="0.64"/>
</svg>
